<svg width="32" height="32" viewBox="0 0 32 32" fill="none" xmlns="http://www.w3.org/2000/svg">
<g filter="url(#filter0_d_744_37435)">
<rect x="4" width="24" height="24" rx="12" fill="black" shape-rendering="crispEdges"/>
<path d="M16 5.50108C15.7239 5.50108 15.5 5.72494 15.5 6.00108C15.5 6.27723 15.7239 6.50108 16 6.50108L16 5.50108ZM21.868 6.50108C22.1442 6.50108 22.368 6.27723 22.368 6.00108C22.368 5.72494 22.1442 5.50108 21.868 5.50108L21.868 6.50108ZM22.3723 6C22.3723 5.72386 22.1484 5.5 21.8723 5.5C21.5961 5.5 21.3723 5.72386 21.3723 6L22.3723 6ZM21.3723 11.868C21.3723 12.1442 21.5961 12.368 21.8723 12.368C22.1484 12.368 22.3723 12.1442 22.3723 11.868L21.3723 11.868ZM16 6.50108L21.868 6.50108L21.868 5.50108L16 5.50108L16 6.50108ZM21.3723 6L21.3723 11.868L22.3723 11.868L22.3723 6L21.3723 6Z" fill="white"/>
<path d="M15.8723 18.4989C16.1485 18.4989 16.3723 18.2751 16.3723 17.9989C16.3723 17.7228 16.1485 17.4989 15.8723 17.4989L15.8723 18.4989ZM10.0043 17.4989C9.72814 17.4989 9.50429 17.7228 9.50429 17.9989C9.50429 18.2751 9.72814 18.4989 10.0043 18.4989L10.0043 17.4989ZM9.50006 18C9.50006 18.2761 9.72392 18.5 10.0001 18.5C10.2762 18.5 10.5001 18.2761 10.5001 18L9.50006 18ZM10.5001 12.132C10.5001 11.8558 10.2762 11.632 10.0001 11.632C9.72392 11.632 9.50006 11.8558 9.50006 12.132L10.5001 12.132ZM15.8723 17.4989L10.0043 17.4989L10.0043 18.4989L15.8723 18.4989L15.8723 17.4989ZM10.5001 18L10.5001 12.132L9.50006 12.132L9.50006 18L10.5001 18Z" fill="white"/>
</g>
<defs>
<filter id="filter0_d_744_37435" x="0" y="0" width="32" height="32" filterUnits="userSpaceOnUse" color-interpolation-filters="sRGB">
<feFlood flood-opacity="0" result="BackgroundImageFix"/>
<feColorMatrix in="SourceAlpha" type="matrix" values="0 0 0 0 0 0 0 0 0 0 0 0 0 0 0 0 0 0 127 0" result="hardAlpha"/>
<feOffset dy="4"/>
<feGaussianBlur stdDeviation="2"/>
<feComposite in2="hardAlpha" operator="out"/>
<feColorMatrix type="matrix" values="0 0 0 0 0 0 0 0 0 0 0 0 0 0 0 0 0 0 0.25 0"/>
<feBlend mode="normal" in2="BackgroundImageFix" result="effect1_dropShadow_744_37435"/>
<feBlend mode="normal" in="SourceGraphic" in2="effect1_dropShadow_744_37435" result="shape"/>
</filter>
</defs>
</svg>
