<svg width="39" height="39" viewBox="0 0 39 39" fill="none" xmlns="http://www.w3.org/2000/svg">
<rect width="39" height="39" rx="19.5" fill="black"/>
<path fill-rule="evenodd" clip-rule="evenodd" d="M17.1841 9.93193H22.057H17.1841Z" fill="white"/>
<path d="M17.1841 9.93193H22.057" stroke="white" stroke-width="2.28009" stroke-linecap="round"/>
<path fill-rule="evenodd" clip-rule="evenodd" d="M27.0434 20.8297C26.8273 20.8611 26.6063 20.8774 26.3815 20.8774C23.863 20.8774 21.8213 18.8357 21.8213 16.3172C21.8213 15.2091 22.2166 14.1932 22.8738 13.403C21.8944 12.8878 20.7889 12.5851 19.6213 12.5515C16.007 12.6514 12.9858 15.3312 12.4553 18.9078C12.326 20.368 12.0376 21.8097 11.5953 23.2074C11.0094 23.997 10.8845 25.0375 11.2671 25.9433C11.6904 26.6684 12.4629 27.1183 13.3023 27.1286H25.9374C26.7768 27.1183 27.5493 26.6684 27.9725 25.9433C28.3551 25.0353 28.2281 23.9926 27.6386 23.2031C27.3921 22.4242 27.1934 21.6316 27.0434 20.8297Z" fill="white"/>
<circle cx="26.3816" cy="16.3166" r="3.64815" fill="#F3A11E"/>
</svg>
