<svg width="24" height="24" viewBox="0 0 24 24" fill="none" xmlns="http://www.w3.org/2000/svg">
<path d="M12.3096 16.6337V7.49312M12.3096 16.6337C12.3096 14.798 13.7977 13.3098 15.6334 13.3098M12.3096 16.6337C12.3096 14.798 10.8215 13.3098 8.98575 13.3098M12.3096 16.6337C12.3096 17.4646 12.4229 17.7723 12.7251 18.2956C13.5282 19.6866 15.3069 20.1632 16.698 19.3601C17.9735 18.6237 18.4802 17.0669 17.9363 15.741C19.4653 15.4423 20.6192 14.0953 20.6192 12.4789C20.6192 10.6432 19.131 9.15504 17.2953 9.15504L17.2953 7.49312C17.2953 6.11634 16.1792 5.00024 14.8025 5.00024C13.4257 5.00024 12.3096 6.11634 12.3096 7.49312M12.3096 16.6337C12.3096 17.4646 12.1962 17.7723 11.8941 18.2956C11.091 19.6866 9.31227 20.1632 7.92123 19.3601C6.64568 18.6237 6.13902 17.0669 6.6829 15.741C5.1539 15.4423 4.00003 14.0953 4.00003 12.4789C4.00003 10.6432 5.48816 9.15504 7.32386 9.15504L7.32384 7.49312C7.32384 6.11634 8.43994 5.00024 9.81672 5.00024C11.1935 5.00024 12.3096 6.11634 12.3096 7.49312" stroke="#292D32" stroke-width="1.24644" stroke-linecap="round" stroke-linejoin="round"/>
</svg>
