<svg width="24" height="24" viewBox="0 0 24 24" fill="none" xmlns="http://www.w3.org/2000/svg">
<path d="M11.9583 19.2605C11.7264 19.2605 11.502 19.2305 11.315 19.1632C8.45736 18.1833 3.91663 14.7048 3.91663 9.56559C3.91663 6.94737 6.03364 4.82288 8.6369 4.82288C9.90112 4.82288 11.0831 5.3166 11.9583 6.19931C12.8335 5.3166 14.0155 4.82288 15.2797 4.82288C17.8829 4.82288 20 6.95485 20 9.56559C20 14.7123 15.4592 18.1833 12.6016 19.1632C12.4146 19.2305 12.1902 19.2605 11.9583 19.2605ZM8.6369 5.94497C6.65453 5.94497 5.03872 7.56826 5.03872 9.56559C5.03872 14.6749 9.95349 17.5175 11.6815 18.1085C11.8162 18.1533 12.1079 18.1533 12.2426 18.1085C13.9631 17.5175 18.8853 14.6823 18.8853 9.56559C18.8853 7.56826 17.2695 5.94497 15.2872 5.94497C14.1501 5.94497 13.0953 6.47609 12.4146 7.39621C12.2052 7.68047 11.7264 7.68047 11.5169 7.39621C10.8212 6.46861 9.77395 5.94497 8.6369 5.94497Z" fill="#383838" stroke="#383838" stroke-width="0.489641"/>
</svg>
