<svg width="24" height="24" viewBox="0 0 24 24" fill="none" xmlns="http://www.w3.org/2000/svg">
<path d="M12.3834 20.96C12.2417 20.96 12.1 20.96 11.9584 20.9517C7.29171 20.7433 3.3917 16.985 3.0667 12.4017C2.78337 8.46835 5.05837 4.79335 8.72504 3.25168C9.76671 2.81835 10.3167 3.15168 10.55 3.39335C10.7834 3.62668 11.1084 4.16835 10.675 5.16002C10.2917 6.04335 10.1 6.98502 10.1084 7.95168C10.125 11.6433 13.1917 14.7767 16.9334 14.9267C17.475 14.9517 18.0084 14.91 18.525 14.8183C19.625 14.6183 20.0834 15.06 20.2584 15.3433C20.4334 15.6267 20.6334 16.235 19.9667 17.135C18.2 19.5517 15.3917 20.96 12.3834 20.96ZM4.30837 12.31C4.59171 16.2767 7.97504 19.5267 12.0084 19.7017C14.75 19.835 17.35 18.585 18.95 16.4017C19.075 16.2267 19.1334 16.1017 19.1584 16.035C19.0834 16.0267 18.95 16.0183 18.7417 16.06C18.1334 16.1683 17.5 16.21 16.875 16.185C12.475 16.01 8.87504 12.3183 8.85004 7.96835C8.85004 6.81835 9.07504 5.71002 9.53337 4.66835C9.61671 4.48502 9.63337 4.36002 9.64171 4.29335C9.56671 4.29335 9.43337 4.31002 9.21671 4.40168C6.0417 5.73502 4.07504 8.91835 4.30837 12.31Z" fill="#292D32"/>
</svg>
