<svg width="37" height="36" viewBox="0 0 37 36" fill="none" xmlns="http://www.w3.org/2000/svg">
<rect x="0.5" width="36" height="36" rx="4.64516" fill="#4C48C3" fill-opacity="0.1"/>
<path d="M18.5 23V12M18.5 23C18.5 20.7909 20.2909 19 22.5 19M18.5 23C18.5 20.7909 16.7091 19 14.5 19M18.5 23C18.5 24 18.6364 24.3702 19 25C19.9665 26.674 22.1071 27.2476 23.7811 26.2811C25.3161 25.3948 25.9259 23.5214 25.2713 21.9257C27.1114 21.5662 28.5 19.9453 28.5 18C28.5 15.7909 26.7091 14 24.5 14L24.5 12C24.5 10.3431 23.1569 9 21.5 9C19.8432 9 18.5 10.3431 18.5 12M18.5 23C18.5 24 18.3636 24.3702 18 25C17.0335 26.674 14.8929 27.2476 13.2189 26.2811C11.6839 25.3948 11.0742 23.5214 11.7287 21.9257C9.88864 21.5662 8.50003 19.9453 8.50003 18C8.50003 15.7909 10.2909 14 12.5 14L12.5 12C12.5 10.3431 13.8432 9 15.5 9C17.1569 9 18.5 10.3431 18.5 12" stroke="#4C48C3" stroke-width="1.5" stroke-linecap="round" stroke-linejoin="round"/>
</svg>
