<svg width="32" height="32" viewBox="0 0 32 32" fill="none" xmlns="http://www.w3.org/2000/svg">
<path d="M17.3166 24.9585H11.175C8.89163 24.9585 7.04163 23.1001 7.04163 20.8251V14.7251C7.04163 12.4418 8.89996 10.5918 11.175 10.5918H17.3166C19.6 10.5918 21.45 12.4501 21.45 14.7251V20.8251C21.45 23.1001 19.5916 24.9585 17.3166 24.9585ZM11.175 11.8418C9.58329 11.8418 8.29163 13.1335 8.29163 14.7251V20.8251C8.29163 22.4168 9.58329 23.7085 11.175 23.7085H17.3166C18.9083 23.7085 20.2 22.4168 20.2 20.8251V14.7251C20.2 13.1335 18.9083 11.8418 17.3166 11.8418H11.175Z" fill="#FFAE17"/>
<path d="M10.5834 9.95833C10.2417 9.95833 9.95837 9.675 9.95837 9.33333V7.875C9.95837 7.53333 10.2417 7.25 10.5834 7.25C10.925 7.25 11.2084 7.53333 11.2084 7.875V9.33333C11.2084 9.675 10.925 9.95833 10.5834 9.95833Z" fill="#FFAE17"/>
<path d="M13.9166 9.95833C13.575 9.95833 13.2916 9.675 13.2916 9.33333V7.875C13.2916 7.53333 13.575 7.25 13.9166 7.25C14.2583 7.25 14.5416 7.53333 14.5416 7.875V9.33333C14.5416 9.675 14.2583 9.95833 13.9166 9.95833Z" fill="#FFAE17"/>
<path d="M17.25 9.95833C16.9083 9.95833 16.625 9.675 16.625 9.33333V7.875C16.625 7.53333 16.9083 7.25 17.25 7.25C17.5917 7.25 17.875 7.53333 17.875 7.875V9.33333C17.875 9.675 17.5917 9.95833 17.25 9.95833Z" fill="#FFAE17"/>
<path d="M20.8251 21.0999C20.4834 21.0999 20.2001 20.8166 20.2001 20.4749V13.4583C20.2001 13.1166 20.4834 12.8333 20.8251 12.8333C23.1084 12.8333 24.9584 14.6916 24.9584 16.9666C24.9584 19.2416 23.1001 21.0999 20.8251 21.0999ZM21.4501 14.1499V19.7833C22.7417 19.4999 23.7084 18.3416 23.7084 16.9666C23.7084 15.5916 22.7417 14.4333 21.4501 14.1499Z" fill="#FFAE17"/>
<path d="M20.5916 16.625H7.66663C7.32496 16.625 7.04163 16.3417 7.04163 16C7.04163 15.6583 7.32496 15.375 7.66663 15.375H20.5916C20.9333 15.375 21.2166 15.6583 21.2166 16C21.2166 16.3417 20.9333 16.625 20.5916 16.625Z" fill="#FFAE17"/>
</svg>
