<svg width="14" height="18" viewBox="0 0 14 18" fill="none" xmlns="http://www.w3.org/2000/svg">
<path d="M6.31497 9.07275C6.81978 11.2742 6.65689 12.8953 4.54553 13.3787C2.43417 13.8621 1.65158 12.4575 1.14677 10.2561C0.641968 8.05467 1.38968 6.00514 2.81684 5.67837C4.244 5.35159 5.81017 6.87131 6.31497 9.07275Z" fill="black"/>
<path d="M2.89306 15.9629C2.33865 13.8953 3.02561 14.8116 4.72717 14.356C6.42874 13.9004 6.54819 12.9459 7.05816 14.8476C7.33623 15.8846 6.62925 16.9749 5.47909 17.2829C4.32893 17.5908 3.17112 16.9998 2.89306 15.9629Z" fill="black"/>
<path d="M13.6162 5.1827C13.3446 7.42483 12.6416 8.89486 10.4912 8.63478C8.34086 8.3747 8.08086 6.78821 8.35244 4.54608C8.62401 2.30395 10.0225 0.628858 11.476 0.804656C12.9296 0.980454 13.8877 2.94057 13.6162 5.1827Z" fill="black"/>
<path d="M8.06024 10.5065C8.23974 8.37355 8.57532 9.46829 10.3307 9.6158C12.0861 9.76331 12.5222 8.90567 12.3571 10.8676C12.2671 11.9374 11.2322 12.7238 10.0457 12.6241C8.85911 12.5244 7.97021 11.5763 8.06024 10.5065Z" fill="black"/>
</svg>
