<svg width="19" height="24" viewBox="0 0 19 24" fill="none" xmlns="http://www.w3.org/2000/svg">
<path d="M7.87274 11.9913C8.60384 15.1796 8.36794 17.5274 5.31007 18.2276C2.2522 18.9277 1.11877 16.8934 0.387666 13.7051C-0.343439 10.5168 0.739475 7.54847 2.80642 7.0752C4.87337 6.60194 7.14163 8.80294 7.87274 11.9913Z" fill="#F2F3EF" fill-opacity="0.6"/>
<path d="M2.9168 21.9702C2.11386 18.9757 3.10877 20.3029 5.57314 19.643C8.03751 18.9832 8.2105 17.6007 8.9491 20.355C9.35182 21.8569 8.32791 23.4359 6.66214 23.8819C4.99636 24.328 3.31952 23.472 2.9168 21.9702Z" fill="#F2F3EF" fill-opacity="0.6"/>
<path d="M18.447 6.35733C18.0537 9.6046 17.0356 11.7336 13.9212 11.357C10.8068 10.9803 10.4303 8.68258 10.8236 5.43532C11.2169 2.18805 13.2423 -0.237975 15.3475 0.0166322C17.4526 0.271239 18.8403 3.11007 18.447 6.35733Z" fill="#F2F3EF" fill-opacity="0.6"/>
<path d="M10.4004 14.0678C10.6604 10.9786 11.1464 12.5641 13.6887 12.7778C16.2311 12.9914 16.8626 11.7493 16.6235 14.5907C16.4931 16.1401 14.9943 17.279 13.2759 17.1346C11.5574 16.9902 10.27 15.6172 10.4004 14.0678Z" fill="#F2F3EF" fill-opacity="0.6"/>
</svg>
