<svg width="32" height="32" viewBox="0 0 32 32" fill="none" xmlns="http://www.w3.org/2000/svg">
<g filter="url(#filter0_b_607_8266)">
<rect width="32" height="32" rx="16" fill="#292929"/>
<path d="M22.8188 20.7952L18.7197 13.024C18.6023 12.8013 18.5405 12.5493 18.5405 12.2929V9H14.4595V12.2929C14.4595 12.5493 14.3977 12.8013 14.2803 13.024L10.1812 20.7952C9.66303 21.7776 10.3178 23 11.3623 23H21.6377C22.6822 23 23.337 21.7776 22.8188 20.7952Z" fill="white"/>
<path d="M14.4595 9H18.5405M14.4595 9V12.2929C14.4595 12.5493 14.3977 12.8013 14.2803 13.024L10.1812 20.7952C9.66303 21.7776 10.3178 23 11.3623 23H21.6377C22.6822 23 23.337 21.7776 22.8188 20.7952L18.7197 13.024C18.6023 12.8013 18.5405 12.5493 18.5405 12.2929V9M14.4595 9H13.0992M18.5405 9H19.9008" stroke="white" stroke-width="1.5" stroke-linecap="round" stroke-linejoin="round"/>
<path d="M14.4595 19.6836H18.5404" stroke="#292929" stroke-width="1.5" stroke-linecap="round" stroke-linejoin="round"/>
</g>
<defs>
<filter id="filter0_b_607_8266" x="-56.32" y="-56.32" width="144.64" height="144.64" filterUnits="userSpaceOnUse" color-interpolation-filters="sRGB">
<feFlood flood-opacity="0" result="BackgroundImageFix"/>
<feGaussianBlur in="BackgroundImageFix" stdDeviation="28.16"/>
<feComposite in2="SourceAlpha" operator="in" result="effect1_backgroundBlur_607_8266"/>
<feBlend mode="normal" in="SourceGraphic" in2="effect1_backgroundBlur_607_8266" result="shape"/>
</filter>
</defs>
</svg>
