<svg width="37" height="36" viewBox="0 0 37 36" fill="none" xmlns="http://www.w3.org/2000/svg">
<rect x="0.5" width="36" height="36" rx="4.64516" fill="#4C48C3" fill-opacity="0.1"/>
<path d="M12.9811 27.5C12.4611 26.0508 12.8866 23.6489 13.9748 22.2702C14.3538 21.7899 15.0341 22.0176 15.3522 22.5402C16.3968 24.2567 18.206 25.5 20.3364 25.5C27.8364 25.5 30.3364 12.2143 24.3364 13.5C22.8364 13.8214 20.8364 11.5 21.3364 8.5M10 27.5C8.60505 24.428 9.69625 20.3525 12.3922 18.1525C12.9434 17.7028 13.7101 17.734 14.3621 18.0184C16.9513 19.1476 18.8986 18.5724 20.2798 16.82C20.6195 16.389 20.4496 15.7786 20.0315 15.4231C18.1322 13.8076 17.4518 11.1538 18.3364 8.5" stroke="#4C48C3" stroke-width="1.5" stroke-linecap="round" stroke-linejoin="round"/>
</svg>
