<svg width="32" height="32" viewBox="0 0 32 32" fill="none" xmlns="http://www.w3.org/2000/svg">
<path d="M11.2333 24.9583C9.4583 24.9583 8.0083 23.5083 8.0083 21.7333C8.0083 19.9583 9.4583 18.5083 11.2333 18.5083C13.0083 18.5083 14.4583 19.9583 14.4583 21.7333C14.4583 23.5083 13.0083 24.9583 11.2333 24.9583ZM11.2333 19.7583C10.1416 19.7583 9.2583 20.6416 9.2583 21.7333C9.2583 22.825 10.1416 23.7083 11.2333 23.7083C12.325 23.7083 13.2083 22.825 13.2083 21.7333C13.2083 20.6416 12.325 19.7583 11.2333 19.7583Z" fill="#292D32"/>
<path d="M13.8334 22.3584C13.4917 22.3584 13.2084 22.075 13.2084 21.7334V11.25C13.2084 9.93336 14 8.90003 15.2667 8.55836L20.4667 7.14169C21.525 6.85003 22.4167 6.95836 23.0417 7.44169C23.675 7.92503 23.9917 8.73336 23.9917 9.8417V20.0084C23.9917 20.35 23.7084 20.6334 23.3667 20.6334C23.025 20.6334 22.7417 20.35 22.7417 20.0084V9.83336C22.7417 9.35003 22.6584 8.71669 22.2834 8.43336C21.875 8.11669 21.175 8.24169 20.7917 8.35003L15.5917 9.76669C14.8667 9.96669 14.4584 10.5084 14.4584 11.2584V21.7417C14.4584 22.075 14.175 22.3584 13.8334 22.3584Z" fill="#292D32"/>
<path d="M20.7666 23.2249C18.9916 23.2249 17.5416 21.7749 17.5416 19.9999C17.5416 18.2249 18.9916 16.7749 20.7666 16.7749C22.5416 16.7749 23.9916 18.2249 23.9916 19.9999C23.9916 21.7749 22.5416 23.2249 20.7666 23.2249ZM20.7666 18.0249C19.675 18.0249 18.7916 18.9082 18.7916 19.9999C18.7916 21.0916 19.675 21.9749 20.7666 21.9749C21.8583 21.9749 22.7416 21.0916 22.7416 19.9999C22.7416 18.9082 21.8583 18.0249 20.7666 18.0249Z" fill="#292D32"/>
<path d="M13.8333 14.5582C13.5583 14.5582 13.3083 14.3749 13.2333 14.0999C13.1417 13.7666 13.3333 13.4166 13.6667 13.3249L23.2 10.7249C23.5333 10.6332 23.875 10.8332 23.9667 11.1666C24.0583 11.4999 23.8583 11.8416 23.525 11.9332L14 14.5332C13.9417 14.5499 13.8833 14.5582 13.8333 14.5582Z" fill="#292D32"/>
</svg>
