<svg width="32" height="32" viewBox="0 0 32 32" fill="none" xmlns="http://www.w3.org/2000/svg">
<path d="M21.4166 24.9583C19.4666 24.9583 17.875 23.3667 17.875 21.4167V21C17.875 20.6583 18.1583 20.375 18.5 20.375C18.8416 20.375 19.125 20.6583 19.125 21V21.4167C19.125 22.6833 20.15 23.7083 21.4166 23.7083C22.6833 23.7083 23.7083 22.6833 23.7083 21.4167C23.7083 20.15 22.6833 19.125 21.4166 19.125H7.66663C7.32496 19.125 7.04163 18.8417 7.04163 18.5C7.04163 18.1583 7.32496 17.875 7.66663 17.875H21.4166C23.3666 17.875 24.9583 19.4667 24.9583 21.4167C24.9583 23.3667 23.3666 24.9583 21.4166 24.9583Z" fill="#292D32"/>
<path d="M21.4166 16.6251H7.66663C7.32496 16.6251 7.04163 16.3417 7.04163 16.0001C7.04163 15.6584 7.32496 15.3751 7.66663 15.3751H21.4166C22.6833 15.3751 23.7083 14.3501 23.7083 13.0834C23.7083 11.8167 22.6833 10.7917 21.4166 10.7917C20.15 10.7917 19.125 11.8167 19.125 13.0834V13.5001C19.125 13.8417 18.8416 14.1251 18.5 14.1251C18.1583 14.1251 17.875 13.8417 17.875 13.5001V13.0834C17.875 11.1334 19.4666 9.54175 21.4166 9.54175C23.3666 9.54175 24.9583 11.1334 24.9583 13.0834C24.9583 15.0334 23.3666 16.6251 21.4166 16.6251Z" fill="#292D32"/>
<path d="M13.7583 14.1252H7.66663C7.32496 14.1252 7.04163 13.8418 7.04163 13.5002C7.04163 13.1585 7.32496 12.8752 7.66663 12.8752H13.7583C14.65 12.8752 15.375 12.1502 15.375 11.2585C15.375 10.3668 14.65 9.64185 13.7583 9.64185C12.8666 9.64185 12.1416 10.3668 12.1416 11.2585V11.5752C12.1416 11.9168 11.8583 12.2002 11.5166 12.2002C11.175 12.2002 10.8916 11.9168 10.8916 11.5752V11.2585C10.8916 9.67518 12.175 8.39185 13.7583 8.39185C15.3416 8.39185 16.625 9.67518 16.625 11.2585C16.625 12.8418 15.3416 14.1252 13.7583 14.1252Z" fill="#292D32"/>
</svg>
