<svg width="32" height="32" viewBox="0 0 32 32" fill="none" xmlns="http://www.w3.org/2000/svg">
<path fill-rule="evenodd" clip-rule="evenodd" d="M14.2032 16.9909C14.2032 16.0063 15.0014 15.208 15.9861 15.208C16.9707 15.208 17.7689 16.0063 17.7689 16.9909C17.7689 17.9756 16.9707 18.7739 15.9861 18.7739C15.5132 18.7739 15.0598 18.586 14.7254 18.2517C14.3911 17.9173 14.2032 17.4638 14.2032 16.9909H14.2032Z" stroke="black" stroke-width="1.3" stroke-linecap="round" stroke-linejoin="round"/>
<path d="M11.9836 21.0394C12.2495 21.2807 12.6605 21.2607 12.9018 20.9949C13.143 20.729 13.1231 20.3179 12.8572 20.0767L11.9836 21.0394ZM12.8572 13.0185C13.1231 12.7773 13.143 12.3662 12.9018 12.1003C12.6605 11.8345 12.2495 11.8145 11.9836 12.0558L12.8572 13.0185ZM19.1121 20.0767C18.8462 20.3179 18.8263 20.729 19.0675 20.9949C19.3087 21.2607 19.7198 21.2807 19.9857 21.0394L19.1121 20.0767ZM19.9857 12.0558C19.7198 11.8145 19.3087 11.8345 19.0675 12.1003C18.8263 12.3662 18.8462 12.7773 19.1121 13.0185L19.9857 12.0558ZM21.6836 21.9788C21.4837 22.277 21.5634 22.6808 21.8616 22.8806C22.1598 23.0805 22.5636 23.0008 22.7634 22.7026L21.6836 21.9788ZM22.7634 10.392C22.5636 10.0938 22.1598 10.0141 21.8616 10.214C21.5634 10.4139 21.4837 10.8176 21.6836 11.1158L22.7634 10.392ZM9.20734 22.7015C9.4072 22.9997 9.81097 23.0794 10.1092 22.8795C10.4074 22.6796 10.4871 22.2759 10.2872 21.9777L9.20734 22.7015ZM10.2872 11.1158C10.4871 10.8176 10.4074 10.4138 10.1092 10.214C9.81097 10.0141 9.4072 10.0938 9.20734 10.392L10.2872 11.1158ZM12.8572 20.0767C11.8618 19.1735 11.2941 17.8918 11.2941 16.5476H9.99413C9.99413 18.2585 10.7166 19.8898 11.9836 21.0394L12.8572 20.0767ZM11.2941 16.5476C11.2941 15.2034 11.8618 13.9217 12.8572 13.0185L11.9836 12.0558C10.7166 13.2054 9.99413 14.8367 9.99413 16.5476H11.2941ZM19.9857 21.0394C21.2526 19.8898 21.9752 18.2585 21.9752 16.5476H20.6752C20.6752 17.8918 20.1075 19.1735 19.1121 20.0767L19.9857 21.0394ZM21.9752 16.5476C21.9752 14.8367 21.2526 13.2054 19.9857 12.0558L19.1121 13.0185C20.1075 13.9217 20.6752 15.2034 20.6752 16.5476H21.9752ZM22.7634 22.7026C25.2596 18.9787 25.2596 14.1159 22.7634 10.392L21.6836 11.1158C23.8863 14.4018 23.8863 18.6928 21.6836 21.9788L22.7634 22.7026ZM10.2872 21.9777C8.08505 18.692 8.08505 14.4015 10.2872 11.1158L9.20734 10.392C6.71168 14.1156 6.71168 18.9778 9.20734 22.7015L10.2872 21.9777Z" fill="black"/>
</svg>
