<svg width="33" height="34" viewBox="0 0 33 34" fill="none" xmlns="http://www.w3.org/2000/svg">
<path fill-rule="evenodd" clip-rule="evenodd" d="M12 14.125V19.875C11.9982 20.1715 12.1142 20.4566 12.3225 20.6676C12.5309 20.8786 12.8145 20.9981 13.111 21H14.222C14.5185 20.9981 14.8022 20.8786 15.0105 20.6676C15.2189 20.4566 15.3349 20.1715 15.333 19.875V14.125C15.3349 13.8285 15.2189 13.5434 15.0105 13.3324C14.8022 13.1214 14.5185 13.0019 14.222 13H13.111C12.8145 13.0019 12.5309 13.1214 12.3225 13.3324C12.1142 13.5434 11.9982 13.8285 12 14.125Z" stroke="black" stroke-width="1.5" stroke-linecap="round" stroke-linejoin="round"/>
<path fill-rule="evenodd" clip-rule="evenodd" d="M18.667 14.125V19.875C18.6652 20.1715 18.7812 20.4566 18.9895 20.6676C19.1979 20.8786 19.4815 20.9981 19.778 21H20.889C21.1855 20.9981 21.4692 20.8786 21.6775 20.6676C21.8859 20.4566 22.0019 20.1715 22 19.875V14.125C22.0019 13.8285 21.8859 13.5434 21.6775 13.3324C21.4692 13.1214 21.1855 13.0019 20.889 13H19.778C19.4815 13.0019 19.1979 13.1214 18.9895 13.3324C18.7812 13.5434 18.6652 13.8285 18.667 14.125V14.125Z" stroke="black" stroke-width="1.5" stroke-linecap="round" stroke-linejoin="round"/>
</svg>
