<svg width="37" height="36" viewBox="0 0 37 36" fill="none" xmlns="http://www.w3.org/2000/svg">
<rect x="0.5" width="36" height="36" rx="4.64516" fill="#4C48C3" fill-opacity="0.1"/>
<path d="M18.5 27.8646C17.5009 27.8646 16.5109 27.5713 15.7317 26.9938L11.79 24.0513C10.745 23.2721 9.9292 21.6405 9.9292 20.348V13.528C9.9292 12.1163 10.965 10.613 12.2942 10.118L16.8684 8.40379C17.7759 8.06462 19.2059 8.06462 20.1134 8.40379L24.6875 10.118C26.0167 10.613 27.0525 12.1163 27.0525 13.528V20.3388C27.0525 21.6405 26.2367 23.263 25.1917 24.0421L21.25 26.9846C20.4892 27.5713 19.4992 27.8646 18.5 27.8646ZM17.3542 9.69629L12.78 11.4105C12.0009 11.7038 11.3134 12.6938 11.3134 13.5371V20.348C11.3134 21.2188 11.9275 22.438 12.615 22.9513L16.5567 25.8938C17.6109 26.6821 19.3892 26.6821 20.4525 25.8938L24.3942 22.9513C25.0909 22.4288 25.6959 21.2188 25.6959 20.348V13.528C25.6959 12.6938 25.0084 11.7038 24.2292 11.4013L19.655 9.68712C19.0317 9.46712 17.9684 9.46712 17.3542 9.69629Z" fill="#4C48C3" stroke="#4C48C3" stroke-width="0.4"/>
</svg>
