<svg width="32" height="32" viewBox="0 0 32 32" fill="none" xmlns="http://www.w3.org/2000/svg">
<path d="M19.4752 15.0081H12.5252C11.8085 15.0081 11.2585 14.7248 11.0085 14.2415C10.7585 13.7498 10.8585 13.1415 11.2752 12.5665L14.7502 7.69979C15.3669 6.81646 16.6419 6.81646 17.2669 7.70813L20.7419 12.5665C21.1585 13.1415 21.2585 13.7498 21.0085 14.2415C20.7419 14.7248 20.1919 15.0081 19.4752 15.0081ZM16.0002 8.24979C15.9252 8.24979 15.8419 8.31646 15.7669 8.41646L12.2919 13.2915C12.1252 13.5165 12.1169 13.6498 12.1252 13.6748C12.1335 13.6915 12.2502 13.7581 12.5335 13.7581H19.4835C19.7585 13.7581 19.8752 13.6831 19.8919 13.6665C19.8919 13.6498 19.8835 13.5165 19.7252 13.2915L16.2502 8.42479C16.1585 8.30813 16.0752 8.24979 16.0002 8.24979Z" fill="#84E341"/>
<path d="M20.6585 21.625H11.3501C10.1585 21.625 9.68345 21.05 9.50845 20.7083C9.33345 20.3666 9.15012 19.65 9.85012 18.6833L13.1751 14.0166C13.2918 13.85 13.4835 13.7583 13.6835 13.7583H18.3251C18.5251 13.7583 18.7168 13.8583 18.8335 14.0166L22.1585 18.6916C22.8585 19.65 22.6668 20.3666 22.4918 20.7083C22.3168 21.05 21.8501 21.625 20.6585 21.625ZM14.0001 15.0083L10.8584 19.4166C10.5918 19.7833 10.5668 20.0333 10.6168 20.1416C10.6751 20.25 10.8918 20.375 11.3418 20.375H20.6501C21.1001 20.375 21.3251 20.25 21.3751 20.1416C21.4335 20.0333 21.4001 19.7833 21.1335 19.4166L17.9918 15H14.0001V15.0083Z" fill="#84E341"/>
<path d="M16 24.9583C15.6583 24.9583 15.375 24.675 15.375 24.3333V21C15.375 20.6583 15.6583 20.375 16 20.375C16.3417 20.375 16.625 20.6583 16.625 21V24.3333C16.625 24.675 16.3417 24.9583 16 24.9583Z" fill="#84E341"/>
</svg>
