<svg width="25" height="24" viewBox="0 0 25 24" fill="none" xmlns="http://www.w3.org/2000/svg">
<path d="M6.25 15C6.25 14.5858 5.91421 14.25 5.5 14.25C5.08579 14.25 4.75 14.5858 4.75 15H6.25ZM5.5 16H4.75H5.5ZM20.25 15C20.25 14.5858 19.9142 14.25 19.5 14.25C19.0858 14.25 18.75 14.5858 18.75 15H20.25ZM13.0857 5.46852C13.3444 5.14507 13.292 4.67311 12.9685 4.41435C12.6451 4.15559 12.1731 4.20803 11.9143 4.53148L13.0857 5.46852ZM7.91435 9.53148C7.65559 9.85493 7.70803 10.3269 8.03148 10.5857C8.35493 10.8444 8.82689 10.792 9.08565 10.4685L7.91435 9.53148ZM13.0857 4.53148C12.8269 4.20803 12.3549 4.15559 12.0315 4.41435C11.708 4.67311 11.6556 5.14507 11.9143 5.46852L13.0857 4.53148ZM15.9143 10.4685C16.1731 10.792 16.6451 10.8444 16.9685 10.5857C17.292 10.3269 17.3444 9.85493 17.0857 9.53148L15.9143 10.4685ZM13.25 5C13.25 4.58579 12.9142 4.25 12.5 4.25C12.0858 4.25 11.75 4.58579 11.75 5H13.25ZM11.75 16C11.75 16.4142 12.0858 16.75 12.5 16.75C12.9142 16.75 13.25 16.4142 13.25 16H11.75ZM4.75 15V16H6.25V15H4.75ZM4.75 16C4.75 18.0711 6.42893 19.75 8.5 19.75V18.25C7.25736 18.25 6.25 17.2426 6.25 16H4.75ZM8.5 19.75H16.5V18.25H8.5V19.75ZM16.5 19.75C18.5711 19.75 20.25 18.0711 20.25 16H18.75C18.75 17.2426 17.7426 18.25 16.5 18.25V19.75ZM20.25 16V15H18.75V16H20.25ZM11.9143 4.53148L7.91435 9.53148L9.08565 10.4685L13.0857 5.46852L11.9143 4.53148ZM11.9143 5.46852L15.9143 10.4685L17.0857 9.53148L13.0857 4.53148L11.9143 5.46852ZM11.75 5V16H13.25V5H11.75Z" fill="white"/>
</svg>
